<svg width="75" height="75" viewBox="0 0 75 75" fill="none" xmlns="http://www.w3.org/2000/svg">
<path d="M37.5 11.25C36.0082 11.25 34.5774 11.8426 33.5225 12.8975C32.4676 13.9524 31.875 15.3832 31.875 16.875C31.875 18.3668 32.4676 19.7976 33.5225 20.8525C34.5774 21.9074 36.0082 22.5 37.5 22.5C38.9918 22.5 40.4226 21.9074 41.4775 20.8525C42.5324 19.7976 43.125 18.3668 43.125 16.875C43.125 15.3832 42.5324 13.9524 41.4775 12.8975C40.4226 11.8426 38.9918 11.25 37.5 11.25ZM28.125 16.875C28.125 14.3886 29.1127 12.004 30.8709 10.2459C32.629 8.48772 35.0136 7.5 37.5 7.5C39.9864 7.5 42.371 8.48772 44.1291 10.2459C45.8873 12.004 46.875 14.3886 46.875 16.875C46.875 19.3614 45.8873 21.746 44.1291 23.5041C42.371 25.2623 39.9864 26.25 37.5 26.25C35.0136 26.25 32.629 25.2623 30.8709 23.5041C29.1127 21.746 28.125 19.3614 28.125 16.875ZM58.125 15C57.1304 15 56.1766 15.3951 55.4734 16.0984C54.7701 16.8016 54.375 17.7554 54.375 18.75C54.375 19.7446 54.7701 20.6984 55.4734 21.4016C56.1766 22.1049 57.1304 22.5 58.125 22.5C59.1196 22.5 60.0734 22.1049 60.7767 21.4016C61.4799 20.6984 61.875 19.7446 61.875 18.75C61.875 17.7554 61.4799 16.8016 60.7767 16.0984C60.0734 15.3951 59.1196 15 58.125 15ZM50.625 18.75C50.625 16.7609 51.4152 14.8532 52.8217 13.4467C54.2282 12.0402 56.1359 11.25 58.125 11.25C60.1141 11.25 62.0218 12.0402 63.4283 13.4467C64.8348 14.8532 65.625 16.7609 65.625 18.75C65.625 20.7391 64.8348 22.6468 63.4283 24.0533C62.0218 25.4598 60.1141 26.25 58.125 26.25C56.1359 26.25 54.2282 25.4598 52.8217 24.0533C51.4152 22.6468 50.625 20.7391 50.625 18.75ZM13.125 18.75C13.125 17.7554 13.5201 16.8016 14.2233 16.0984C14.9266 15.3951 15.8804 15 16.875 15C17.8696 15 18.8234 15.3951 19.5266 16.0984C20.2299 16.8016 20.625 17.7554 20.625 18.75C20.625 19.7446 20.2299 20.6984 19.5266 21.4016C18.8234 22.1049 17.8696 22.5 16.875 22.5C15.8804 22.5 14.9266 22.1049 14.2233 21.4016C13.5201 20.6984 13.125 19.7446 13.125 18.75ZM16.875 11.25C14.8859 11.25 12.9782 12.0402 11.5717 13.4467C10.1652 14.8532 9.375 16.7609 9.375 18.75C9.375 20.7391 10.1652 22.6468 11.5717 24.0533C12.9782 25.4598 14.8859 26.25 16.875 26.25C18.8641 26.25 20.7718 25.4598 22.1783 24.0533C23.5848 22.6468 24.375 20.7391 24.375 18.75C24.375 16.7609 23.5848 14.8532 22.1783 13.4467C20.7718 12.0402 18.8641 11.25 16.875 11.25ZM19.125 56.2425L18.75 56.25C16.7609 56.25 14.8532 55.4598 13.4467 54.0533C12.0402 52.6468 11.25 50.7391 11.25 48.75V34.6875C11.25 34.4389 11.3488 34.2004 11.5246 34.0246C11.7004 33.8488 11.9389 33.75 12.1875 33.75H18.8025C18.9525 32.3738 19.44 31.095 20.1713 30H12.1875C9.6 30 7.5 32.1 7.5 34.6875V48.75C7.49983 50.3554 7.84327 51.9423 8.50726 53.404C9.17124 54.8657 10.1404 56.1684 11.3496 57.2245C12.5588 58.2806 13.98 59.0656 15.5177 59.5269C17.0555 59.9882 18.6742 60.1149 20.265 59.8988C19.7612 58.7221 19.3792 57.497 19.125 56.2425ZM54.735 59.8988C55.23 59.9662 55.735 60 56.25 60C59.2337 60 62.0952 58.8147 64.205 56.705C66.3147 54.5952 67.5 51.7337 67.5 48.75V34.6875C67.5 32.1 65.4 30 62.8125 30H54.8288C55.5638 31.095 56.0475 32.3738 56.1975 33.75H62.8125C63.0611 33.75 63.2996 33.8488 63.4754 34.0246C63.6512 34.2004 63.75 34.4389 63.75 34.6875V48.75C63.7503 49.7666 63.5438 50.7727 63.1432 51.7071C62.7426 52.6415 62.1562 53.4847 61.4197 54.1855C60.6832 54.8863 59.8118 55.43 58.8587 55.7836C57.9055 56.1372 56.8904 56.2933 55.875 56.2425C55.6208 57.497 55.2388 58.7221 54.735 59.8988ZM27.1875 30C24.6 30 22.5 32.1 22.5 34.6875V52.5C22.5 56.4782 24.0804 60.2936 26.8934 63.1066C29.7064 65.9196 33.5218 67.5 37.5 67.5C41.4782 67.5 45.2936 65.9196 48.1066 63.1066C50.9196 60.2936 52.5 56.4782 52.5 52.5V34.6875C52.5 32.1 50.4 30 47.8125 30H27.1875ZM26.25 34.6875C26.25 34.4389 26.3488 34.2004 26.5246 34.0246C26.7004 33.8488 26.9389 33.75 27.1875 33.75H47.8125C48.0611 33.75 48.2996 33.8488 48.4754 34.0246C48.6512 34.2004 48.75 34.4389 48.75 34.6875V52.5C48.75 55.4837 47.5647 58.3452 45.455 60.455C43.3452 62.5647 40.4837 63.75 37.5 63.75C34.5163 63.75 31.6548 62.5647 29.545 60.455C27.4353 58.3452 26.25 55.4837 26.25 52.5V34.6875Z" fill="white"/>
</svg>
