<svg width="75" height="75" viewBox="0 0 75 75" fill="none" xmlns="http://www.w3.org/2000/svg">
<path d="M37.5 23.4375C34.7187 23.4375 31.9998 24.2623 29.6872 25.8075C27.3747 27.3527 25.5723 29.5489 24.5079 32.1185C23.4435 34.6881 23.1651 37.5156 23.7077 40.2435C24.2503 42.9713 25.5896 45.477 27.5563 47.4437C29.5229 49.4104 32.0286 50.7497 34.7565 51.2923C37.4844 51.8349 40.3119 51.5564 42.8814 50.4921C45.451 49.4277 47.6473 47.6253 49.1925 45.3127C50.7377 43.0002 51.5625 40.2813 51.5625 37.5C51.5586 33.7716 50.0757 30.197 47.4394 27.5606C44.803 24.9242 41.2284 23.4414 37.5 23.4375ZM37.5 46.875C35.6458 46.875 33.8332 46.3252 32.2915 45.295C30.7498 44.2649 29.5482 42.8007 28.8386 41.0877C28.129 39.3746 27.9434 37.4896 28.3051 35.671C28.6668 33.8525 29.5597 32.182 30.8708 30.8709C32.1819 29.5598 33.8524 28.6669 35.671 28.3051C37.4896 27.9434 39.3745 28.1291 41.0876 28.8386C42.8007 29.5482 44.2648 30.7498 45.295 32.2915C46.3251 33.8333 46.875 35.6458 46.875 37.5C46.875 39.9864 45.8872 42.371 44.1291 44.1291C42.3709 45.8873 39.9864 46.875 37.5 46.875ZM63.2812 38.1328C63.2929 37.711 63.2929 37.2891 63.2812 36.8672L67.6523 31.4063C67.8815 31.1195 68.0401 30.783 68.1154 30.4237C68.1908 30.0645 68.1806 29.6925 68.0859 29.3379C67.3694 26.6443 66.2974 24.0582 64.8984 21.6475C64.7152 21.332 64.4609 21.0636 64.1557 20.8638C63.8506 20.6639 63.503 20.538 63.1406 20.4961L56.1914 19.7227C55.9023 19.418 55.6093 19.125 55.3125 18.8438L54.4921 11.877C54.4499 11.5143 54.3236 11.1665 54.1232 10.8613C53.9228 10.5561 53.6539 10.302 53.3378 10.1192C50.9262 8.72268 48.3403 7.65184 45.6474 6.93458C45.2926 6.84024 44.9205 6.83059 44.5612 6.90641C44.202 6.98223 43.8655 7.14141 43.5791 7.37111L38.1328 11.7188H36.8671L31.4062 7.35646C31.1195 7.12726 30.7829 6.96862 30.4237 6.89331C30.0644 6.81799 29.6925 6.82812 29.3378 6.92286C26.6447 7.64072 24.0587 8.71256 21.6474 10.1104C21.3319 10.2935 21.0636 10.5478 20.8637 10.853C20.6638 11.1582 20.5379 11.5058 20.496 11.8682L19.7226 18.8291C19.4179 19.1201 19.125 19.4131 18.8437 19.708L11.8769 20.5078C11.5142 20.55 11.1665 20.6764 10.8613 20.8768C10.5561 21.0772 10.3019 21.3461 10.1191 21.6621C8.72262 24.0737 7.65178 26.6597 6.93452 29.3526C6.84018 29.7074 6.83053 30.0795 6.90635 30.4387C6.98217 30.798 7.14135 31.1344 7.37104 31.4209L11.7187 36.8672V38.1328L7.3564 43.5938C7.1272 43.8805 6.96856 44.217 6.89325 44.5763C6.81793 44.9356 6.82806 45.3075 6.9228 45.6621C7.63934 48.3557 8.71125 50.9419 10.1103 53.3526C10.2935 53.668 10.5478 53.9364 10.8529 54.1363C11.1581 54.3362 11.5057 54.462 11.8681 54.5039L18.8173 55.2774C19.1084 55.582 19.4013 55.875 19.6962 56.1563L20.5078 63.1231C20.55 63.4857 20.6763 63.8335 20.8767 64.1387C21.0771 64.4439 21.346 64.698 21.6621 64.8809C24.0737 66.2773 26.6596 67.3482 29.3525 68.0654C29.7073 68.1598 30.0794 68.1694 30.4387 68.0936C30.7979 68.0178 31.1344 67.8586 31.4208 67.6289L36.8671 63.2813C37.289 63.293 37.7109 63.293 38.1328 63.2813L43.5937 67.6524C43.8804 67.8815 44.217 68.0402 44.5762 68.1155C44.9355 68.1908 45.3074 68.1807 45.6621 68.0859C48.3556 67.3694 50.9418 66.2975 53.3525 64.8984C53.668 64.7153 53.9363 64.461 54.1362 64.1558C54.3361 63.8506 54.462 63.503 54.5039 63.1406L55.2773 56.1914C55.582 55.9024 55.875 55.6094 56.1562 55.3125L63.123 54.4922C63.4857 54.45 63.8334 54.3237 64.1386 54.1233C64.4438 53.9229 64.698 53.6539 64.8808 53.3379C66.2773 50.9263 67.3481 48.3403 68.0654 45.6475C68.1597 45.2926 68.1694 44.9206 68.0936 44.5613C68.0177 44.202 67.8586 43.8656 67.6289 43.5791L63.2812 38.1328ZM58.5644 36.2285C58.6142 37.0755 58.6142 37.9246 58.5644 38.7715C58.5295 39.3513 58.7112 39.9235 59.0742 40.377L63.2314 45.5713C62.7543 47.0873 62.1435 48.5579 61.4062 49.9658L54.7851 50.7158C54.2085 50.7798 53.6761 51.0554 53.291 51.4893C52.7271 52.1236 52.1264 52.7242 51.4921 53.2881C51.0583 53.6733 50.7827 54.2056 50.7187 54.7822L49.9833 61.3975C48.5756 62.1352 47.105 62.746 45.5888 63.2227L40.3916 59.0654C39.9757 58.7331 39.459 58.5523 38.9267 58.5527H38.7861C37.9392 58.6025 37.09 58.6025 36.2431 58.5527C35.6633 58.5178 35.0911 58.6995 34.6376 59.0625L29.4287 63.2227C27.9127 62.7456 26.442 62.1348 25.0341 61.3975L24.2841 54.7852C24.2201 54.2086 23.9445 53.6762 23.5107 53.291C22.8764 52.7271 22.2757 52.1265 21.7119 51.4922C21.3267 51.0583 20.7943 50.7828 20.2177 50.7188L13.6025 49.9805C12.8647 48.5728 12.2539 47.1021 11.7773 45.586L15.9345 40.3887C16.2975 39.9352 16.4792 39.3631 16.4443 38.7832C16.3945 37.9363 16.3945 37.0872 16.4443 36.2402C16.4792 35.6604 16.2975 35.0883 15.9345 34.6348L11.7773 29.4287C12.2544 27.9127 12.8652 26.4421 13.6025 25.0342L20.2148 24.2842C20.7914 24.2202 21.3238 23.9446 21.7089 23.5108C22.2728 22.8765 22.8735 22.2758 23.5078 21.7119C23.9433 21.3265 24.2201 20.7929 24.2841 20.2149L25.0195 13.6026C26.4272 12.8648 27.8979 12.254 29.414 11.7774L34.6113 15.9346C35.0648 16.2976 35.6369 16.4793 36.2167 16.4443C37.0637 16.3946 37.9128 16.3946 38.7597 16.4443C39.3396 16.4793 39.9117 16.2976 40.3652 15.9346L45.5712 11.7774C47.0872 12.2544 48.5579 12.8652 49.9658 13.6026L50.7158 20.2149C50.7798 20.7915 51.0554 21.3238 51.4892 21.709C52.1235 22.2729 52.7242 22.8735 53.288 23.5078C53.6732 23.9417 54.2056 24.2173 54.7822 24.2813L61.3974 25.0166C62.1352 26.4243 62.746 27.895 63.2226 29.4111L59.0654 34.6084C58.6989 35.0657 58.517 35.6437 58.5556 36.2285H58.5644Z" fill="white"/>
</svg>
