<svg width="76" height="61" viewBox="0 0 76 61" fill="none" xmlns="http://www.w3.org/2000/svg">
<g clip-path="url(#clip0_1_66)">
<path d="M57.9499 22.8751H39.8999V29.547C39.8999 34.2769 36.0643 38.1251 31.3499 38.1251C26.6355 38.1251 22.7999 34.2769 22.7999 29.547V15.0595L15.093 19.706C12.8012 21.0761 11.3999 23.5662 11.3999 26.2349V31.8703L1.8999 37.3746C0.0830258 38.423 -0.546349 40.7581 0.510526 42.581L10.0105 59.0939C11.0555 60.9167 13.383 61.5363 15.1999 60.4878L27.4787 53.3751H43.6999C47.8918 53.3751 51.2999 49.9558 51.2999 45.7501H53.1999C55.3018 45.7501 56.9999 44.0464 56.9999 41.9376V34.3126H57.9499C59.5293 34.3126 60.7999 33.0378 60.7999 31.4533V25.7345C60.7999 24.1499 59.5293 22.8751 57.9499 22.8751ZM75.4893 18.4193L65.9893 1.90639C64.9443 0.0835372 62.6168 -0.535994 60.7999 0.512444L48.5211 7.62514H36.3849C34.9599 7.62514 33.5705 8.03022 32.3593 8.7808L28.3812 11.2708C27.2649 11.9619 26.5999 13.189 26.5999 14.4996V29.547C26.5999 32.18 28.7255 34.3126 31.3499 34.3126C33.9743 34.3126 36.0999 32.18 36.0999 29.547V19.0626H57.9499C61.6193 19.0626 64.5999 22.0531 64.5999 25.7345V29.13L74.0999 23.6257C75.9168 22.5654 76.5343 20.2421 75.4893 18.4193Z" fill="white"/>
</g>
<defs>
<clipPath id="clip0_1_66">
<rect width="76" height="61" fill="white"/>
</clipPath>
</defs>
</svg>
