<svg width="75" height="75" viewBox="0 0 75 75" fill="none" xmlns="http://www.w3.org/2000/svg">
<path d="M28.4625 36.7437L35.6 29.5875L29.1844 23.15L25.5625 26.7687L23.35 24.5562L26.9531 20.9375L20.8531 14.8375L13.6969 21.9937L28.4625 36.7437ZM52.9437 61.2437L60.1 54.0875L54.0031 47.9875L50.3844 51.5875L48.175 49.375L51.7719 45.7562L45.3969 39.4L38.2562 46.5375L52.9437 61.2437ZM48.5375 21.1L53.9375 26.4969L59.3938 21.0406L53.9781 15.625L48.5375 21.1ZM22.3594 62.5H12.5V52.6437L26.2313 38.9125L9.375 21.9969L20.8531 10.5187L37.85 27.4531L54.1156 11.1656L63.7563 21.0812L47.6875 37.2312L64.4844 54.1469L53 65.625L36.0844 48.7687L22.3594 62.5Z" fill="white"/>
</svg>
